<svg width="29" height="13" viewBox="0 0 29 13" fill="none" xmlns="http://www.w3.org/2000/svg">
<path d="M5.78236 2.27128C6.10037 1.87375 6.316 1.33987 6.25915 0.794434C5.79391 0.817538 5.22629 1.10135 4.89741 1.49933C4.60227 1.84 4.34111 2.39608 4.40907 2.91864C4.93138 2.96394 5.45325 2.6577 5.78236 2.27128Z" fill="black"/>
<path d="M6.25323 3.02062C5.49445 2.97532 4.84983 3.45096 4.48766 3.45096C4.12526 3.45096 3.57056 3.04327 2.97056 3.05437C2.18981 3.06569 1.46546 3.50736 1.06909 4.20949C0.254138 5.61375 0.853912 7.69749 1.64666 8.84129C2.03149 9.40752 2.49536 10.0304 3.10646 10.008C3.68403 9.98531 3.91031 9.63424 4.61201 9.63424C5.31348 9.63424 5.51733 10.008 6.12865 9.99663C6.7624 9.98531 7.15878 9.4304 7.5436 8.86416C7.98528 8.21865 8.1658 7.5958 8.17712 7.56182C8.1658 7.5505 6.95493 7.08596 6.9436 5.69302C6.93228 4.52658 7.89445 3.97167 7.93975 3.93747C7.39638 3.13387 6.54745 3.04327 6.253 3.02062" fill="black"/>
<path d="M13.8152 1.44434C15.4636 1.44434 16.6118 2.5807 16.6118 4.23507C16.6118 5.89533 15.4401 7.03758 13.7739 7.03758H11.9488V9.94043H10.6301V1.44434H13.8152ZM11.9488 5.93066H13.4618C14.6102 5.93066 15.2634 5.31254 15.2634 4.24096C15.2634 3.1696 14.61 2.55714 13.4677 2.55714H11.9488V5.93066Z" fill="black"/>
<path d="M16.939 8.17792C16.939 7.08862 17.7691 6.46457 19.2998 6.37034L20.9423 6.27022V5.79908C20.9423 5.11048 20.4891 4.73356 19.6826 4.73356C19.0171 4.73356 18.5342 5.07492 18.4345 5.59884H17.245C17.2805 4.49799 18.3165 3.69727 19.7179 3.69727C21.225 3.69727 22.2083 4.48621 22.2083 5.71096V9.93837H20.9897V8.91975H20.9602C20.6128 9.58501 19.8472 10.0029 19.0171 10.0029C17.7926 10.0029 16.939 9.27311 16.939 8.17792V8.17792ZM20.9423 7.63043V7.1534L19.4764 7.24763C18.652 7.30063 18.2225 7.60665 18.2225 8.14235C18.2225 8.66061 18.6699 8.99631 19.3704 8.99631C20.2651 8.99631 20.9423 8.42504 20.9423 7.63043V7.63043Z" fill="black"/>
<path d="M23.3288 12.2103V11.1919C23.4112 11.2035 23.6112 11.2153 23.7172 11.2153C24.3 11.2153 24.6298 10.9684 24.83 10.3321L24.9478 9.95543L22.7163 3.77344H24.0939L25.6484 8.78961H25.6778L27.2321 3.77344H28.5745L26.2606 10.2673C25.7306 11.7571 25.1242 12.2458 23.8409 12.2458C23.7408 12.2458 23.4169 12.2341 23.3288 12.2103V12.2103Z" fill="black"/>
</svg>
