<svg width="68" height="33" viewBox="0 0 68 33" fill="none" xmlns="http://www.w3.org/2000/svg">
<path d="M16.1018 10.9344V16.5441C16.1018 18.7614 15.412 20.5751 14.0326 21.9852C12.5816 23.4669 10.6913 24.2077 8.36155 24.2077C6.03182 24.2077 4.14147 23.4669 2.6905 21.9852C1.31106 20.5751 0.621338 18.7614 0.621338 16.5441V8.11416C0.621338 5.89684 1.31106 4.08312 2.6905 2.67302C4.14147 1.1914 6.03182 0.450586 8.36155 0.450586C10.773 0.450586 12.6634 1.1914 14.0326 2.67302C15.412 4.15465 16.1018 5.86618 16.1018 7.80762L13.1896 9.18707H13.0363V8.11416C13.0363 6.74494 12.6685 5.63627 11.9328 4.78817C11.0234 3.73571 9.83296 3.20947 8.36155 3.20947C6.89014 3.20947 5.69974 3.73571 4.79032 4.78817C4.05462 5.63627 3.68677 6.74494 3.68677 8.11416V16.5441C3.68677 17.9133 4.05462 19.022 4.79032 19.8701C5.69974 20.9226 6.89014 21.4488 8.36155 21.4488C9.83296 21.4488 11.0234 20.9226 11.9328 19.8701C12.6685 19.022 13.0363 18.0155 13.0363 16.8506V13.7239H7.70248V13.5706L8.94398 10.9344H16.1018Z" fill="white"/>
<path d="M24.6703 16.5441C24.6703 17.9133 25.0381 19.022 25.7738 19.8701C26.6832 20.9226 27.8736 21.4488 29.345 21.4488C30.8164 21.4488 32.0069 20.9226 32.9163 19.8701C33.652 19.022 34.0198 17.9133 34.0198 16.5441V8.11416C34.0198 6.74494 33.652 5.63627 32.9163 4.78817C32.0069 3.73571 30.8164 3.20947 29.345 3.20947C27.8736 3.20947 26.6832 3.73571 25.7738 4.78817C25.0381 5.63627 24.6703 6.74494 24.6703 8.11416V16.5441ZM21.6048 16.5441V8.11416C21.6048 5.89684 22.2945 4.08312 23.674 2.67302C25.125 1.1914 27.0153 0.450586 29.345 0.450586C31.6748 0.450586 33.5651 1.1914 35.0161 2.67302C36.3955 4.0729 37.0853 5.88662 37.0853 8.11416V16.5441C37.0853 18.7614 36.3955 20.5751 35.0161 21.9852C33.5651 23.4669 31.6748 24.2077 29.345 24.2077C27.0153 24.2077 25.125 23.4669 23.674 21.9852C22.2945 20.5751 21.6048 18.7614 21.6048 16.5441Z" fill="white"/>
<path d="M45.6537 21.1422H50.022C51.5649 21.1422 52.7911 20.6569 53.7005 19.6862C54.3647 18.9811 54.6968 18.0513 54.6968 16.8966C54.6968 15.7011 54.3442 14.6946 53.6392 13.8772C52.8728 12.9371 51.6671 12.4671 50.022 12.4671H45.6537V21.1422ZM45.6537 9.70819H50.022C51.0438 9.70819 51.8664 9.3761 52.4897 8.71192C53.0414 8.11927 53.3173 7.34781 53.3173 6.39752C53.3173 5.62095 52.9852 4.92101 52.3211 4.2977C51.7284 3.77658 50.9621 3.51602 50.022 3.51602H45.6537V9.70819ZM42.5883 23.9011V1.52349L44.213 0.757129H50.022C51.7488 0.757129 53.1845 1.22716 54.3289 2.16723C55.6879 3.27078 56.3674 4.68599 56.3674 6.41285C56.3674 8.17036 55.5909 9.63155 54.0377 10.7964C54.5384 11.011 55.034 11.3329 55.5244 11.762C57.0163 13.121 57.7622 14.807 57.7622 16.82C57.7622 18.8432 57.1082 20.5036 55.8003 21.8013C54.4004 23.2012 52.4743 23.9011 50.022 23.9011H42.5883Z" fill="white"/>
<path d="M62.9587 24.5142V1.52349L65.8709 0.144043H66.0242V23.1348L63.112 24.5142H62.9587Z" fill="white"/>
<path d="M1.52715 30.0474C1.52715 30.3446 1.56431 30.6016 1.63861 30.8183C1.71292 31.0351 1.80993 31.2146 1.92965 31.3571C2.04937 31.4974 2.18457 31.6017 2.33525 31.6698C2.48799 31.7379 2.64176 31.7719 2.79657 31.7719C2.95757 31.7719 3.10309 31.7399 3.23313 31.676C3.36317 31.6099 3.47669 31.5243 3.5737 31.419C3.67278 31.3116 3.75431 31.1899 3.8183 31.0536C3.88228 30.9174 3.92873 30.777 3.95762 30.6326H4.6976C4.65219 30.8761 4.57685 31.1042 4.47158 31.3168C4.36838 31.5294 4.23628 31.7141 4.07528 31.871C3.91634 32.0279 3.72954 32.1517 3.51488 32.2426C3.30021 32.3313 3.06078 32.3757 2.79657 32.3757C2.49315 32.3757 2.21759 32.3241 1.9699 32.2209C1.72427 32.1156 1.51477 31.9629 1.34139 31.7627C1.168 31.5624 1.03384 31.3178 0.938887 31.0289C0.846003 30.7399 0.799561 30.4107 0.799561 30.0412C0.799561 29.8513 0.819169 29.6655 0.858387 29.4839C0.899669 29.3002 0.958496 29.1268 1.03487 28.9637C1.11124 28.8007 1.20619 28.651 1.31971 28.5148C1.4353 28.3765 1.56637 28.2578 1.71292 28.1587C1.85947 28.0576 2.02254 27.9792 2.20211 27.9234C2.38375 27.8677 2.57984 27.8398 2.79038 27.8398C3.05871 27.8398 3.29815 27.878 3.50868 27.9544C3.71922 28.0308 3.90396 28.1371 4.06289 28.2733C4.22389 28.4075 4.35806 28.5674 4.46539 28.7532C4.57479 28.939 4.66148 29.1423 4.72547 29.3631H3.96382C3.85442 29.0535 3.70374 28.8234 3.51178 28.6727C3.31982 28.52 3.07935 28.4436 2.79038 28.4436C2.60461 28.4436 2.43432 28.4869 2.27952 28.5736C2.12471 28.6583 1.99157 28.7738 1.88011 28.9204C1.76865 29.0649 1.68196 29.2341 1.62004 29.4282C1.55812 29.6222 1.52715 29.8286 1.52715 30.0474Z" fill="white"/>
<path d="M7.93121 27.9482L9.51024 32.2673H8.75169L8.28108 31.0041H6.72681C6.65457 31.2126 6.5782 31.4241 6.4977 31.6388C6.41926 31.8514 6.34392 32.0609 6.27168 32.2673H5.51003L7.08906 27.9482H7.93121ZM7.50704 28.8554L6.95593 30.3911H8.05196L7.50704 28.8554Z" fill="white"/>
<path d="M11.1215 30.7595C11.1297 30.9061 11.1586 31.0413 11.2082 31.1651C11.2598 31.2869 11.3269 31.3921 11.4094 31.4809C11.494 31.5697 11.5921 31.6388 11.7035 31.6883C11.815 31.7358 11.9378 31.7596 12.072 31.7596C12.1896 31.7596 12.3021 31.7472 12.4095 31.7224C12.5168 31.6976 12.6118 31.6584 12.6943 31.6048C12.7769 31.549 12.8429 31.4768 12.8925 31.388C12.942 31.2972 12.9668 31.1868 12.9668 31.0567C12.9668 30.9391 12.9307 30.84 12.8584 30.7595C12.7882 30.679 12.6953 30.6099 12.5798 30.5521C12.4642 30.4922 12.3321 30.4385 12.1835 30.3911C12.0348 30.3415 11.8831 30.291 11.7283 30.2394C11.5756 30.1878 11.4249 30.13 11.2763 30.066C11.1277 29.9999 10.9956 29.9194 10.88 29.8245C10.7644 29.7295 10.6705 29.616 10.5982 29.4839C10.528 29.3518 10.493 29.1929 10.493 29.0071C10.493 28.8172 10.5301 28.65 10.6044 28.5055C10.6787 28.359 10.783 28.2372 10.9171 28.1402C11.0534 28.0411 11.2144 27.9668 11.4001 27.9172C11.5859 27.8656 11.7902 27.8398 12.0132 27.8398C12.2113 27.8398 12.3868 27.8605 12.5395 27.9018C12.6923 27.941 12.8254 27.9947 12.9389 28.0628C13.0545 28.1309 13.1515 28.2114 13.2299 28.3043C13.3084 28.3971 13.3724 28.4962 13.4219 28.6015C13.4735 28.7047 13.5117 28.8131 13.5365 28.9266C13.5612 29.0381 13.5777 29.1474 13.586 29.2548H12.846C12.8336 29.1165 12.8027 28.9968 12.7531 28.8956C12.7057 28.7945 12.6448 28.7109 12.5705 28.6448C12.4982 28.5788 12.4136 28.5303 12.3166 28.4993C12.2216 28.4663 12.1205 28.4498 12.0132 28.4498C11.9162 28.4498 11.8202 28.4601 11.7252 28.4807C11.6323 28.4993 11.5487 28.5303 11.4744 28.5736C11.4001 28.617 11.3403 28.6748 11.2949 28.747C11.2494 28.8172 11.2267 28.9039 11.2267 29.0071C11.2267 29.1268 11.2618 29.2279 11.332 29.3105C11.4043 29.391 11.4982 29.4622 11.6138 29.5241C11.7294 29.5861 11.8615 29.6418 12.0101 29.6913C12.1587 29.7388 12.3094 29.7894 12.4621 29.843C12.6169 29.8946 12.7686 29.9535 12.9172 30.0195C13.0659 30.0835 13.198 30.1619 13.3135 30.2548C13.4291 30.3477 13.522 30.4592 13.5922 30.5892C13.6644 30.7193 13.7006 30.8751 13.7006 31.0567C13.7006 31.2755 13.6593 31.4675 13.5767 31.6326C13.4962 31.7957 13.3837 31.9329 13.2392 32.0444C13.0947 32.1538 12.9224 32.2364 12.7222 32.2921C12.524 32.3478 12.3073 32.3757 12.072 32.3757C11.8594 32.3757 11.6519 32.3385 11.4497 32.2642C11.2494 32.1899 11.0699 32.0836 10.9109 31.9453C10.7541 31.805 10.6261 31.6347 10.527 31.4345C10.43 31.2342 10.3784 31.0093 10.3722 30.7595H11.1215Z" fill="white"/>
<path d="M15.5688 27.9482V29.7316H17.5193V27.9482H18.2562V32.2673H17.5193V30.3322H15.5688V32.2673H14.8381V27.9482H15.5688Z" fill="white"/>
<path d="M20.4867 27.9482L21.6942 31.3354L22.9295 27.9482H23.7469V32.2673H23.0193V29.4127L22.0224 32.2673H21.4062L20.3938 29.4065V32.2673H19.6631V27.9482H20.4867Z" fill="white"/>
<path d="M28.219 27.9482V28.5643H25.9V29.7316H28.0735V30.3539H25.9V31.6388H28.3212V32.2673H25.1693V27.9482H28.219Z" fill="white"/>
<path d="M32.7839 29.2176C32.7839 29.4055 32.7344 29.583 32.6353 29.7502C32.5362 29.9153 32.3866 30.0587 32.1864 30.1805C32.2834 30.2136 32.366 30.261 32.4341 30.3229C32.5022 30.3849 32.5579 30.4551 32.6013 30.5335C32.6446 30.6099 32.6756 30.6924 32.6941 30.7812C32.7148 30.8699 32.7251 30.9577 32.7251 31.0443V31.6636C32.7251 31.7441 32.7447 31.837 32.7839 31.9422C32.8232 32.0475 32.8758 32.1559 32.9418 32.2673H32.143C32.1121 32.2178 32.0863 32.1662 32.0656 32.1125C32.0471 32.0589 32.0326 32.0072 32.0223 31.9577C32.012 31.9061 32.0047 31.8576 32.0006 31.8122C31.9985 31.7647 31.9975 31.7245 31.9975 31.6914V31.032C31.9975 30.968 31.9862 30.905 31.9635 30.8431C31.9428 30.7791 31.9088 30.7224 31.8613 30.6728C31.8138 30.6212 31.7509 30.5799 31.6724 30.549C31.594 30.5159 31.499 30.4994 31.3876 30.4994H30.2853V32.2673H29.5547V27.9482H31.3876C31.6105 27.9482 31.8087 27.9854 31.982 28.0597C32.1554 28.134 32.3009 28.231 32.4186 28.3507C32.5383 28.4704 32.6291 28.6067 32.6911 28.7594C32.753 28.9101 32.7839 29.0628 32.7839 29.2176ZM30.2853 29.8833H31.3876C31.4763 29.8833 31.5599 29.8678 31.6384 29.8369C31.7189 29.8038 31.789 29.7595 31.8489 29.7037C31.9108 29.6459 31.9593 29.5768 31.9944 29.4963C32.0295 29.4158 32.0471 29.327 32.0471 29.23C32.0471 29.1351 32.0305 29.0473 31.9975 28.9668C31.9645 28.8843 31.918 28.8141 31.8582 28.7563C31.8004 28.6964 31.7312 28.65 31.6507 28.617C31.5702 28.5819 31.4825 28.5643 31.3876 28.5643H30.2853V29.8833Z" fill="white"/>
<path d="M37.2065 27.9482V28.5643H34.8875V29.7316H37.0609V30.3539H34.8875V31.6388H37.3086V32.2673H34.1568V27.9482H37.2065Z" fill="white"/>
<path d="M43.2898 27.9482V28.5643H41.0389V29.7316H42.9894V30.3539H41.0389V32.2673H40.3082V27.9482H43.2898Z" fill="white"/>
<path d="M48.2634 30.1C48.2634 30.4344 48.219 30.7409 48.1303 31.0196C48.0415 31.2982 47.9115 31.5387 47.7402 31.741C47.5709 31.9412 47.3614 32.097 47.1116 32.2085C46.8619 32.32 46.577 32.3757 46.2571 32.3757C45.9392 32.3757 45.6564 32.32 45.4088 32.2085C45.1611 32.097 44.9526 31.9412 44.7833 31.741C44.6141 31.5387 44.4851 31.2982 44.3963 31.0196C44.3096 30.7389 44.2663 30.4303 44.2663 30.0938C44.2663 29.7595 44.3096 29.454 44.3963 29.1774C44.4851 28.9008 44.6141 28.6634 44.7833 28.4653C44.9526 28.2671 45.1611 28.1133 45.4088 28.0039C45.6564 27.8945 45.9392 27.8398 46.2571 27.8398C46.577 27.8398 46.8619 27.8945 47.1116 28.0039C47.3614 28.1133 47.5709 28.2681 47.7402 28.4684C47.9115 28.6665 48.0415 28.9049 48.1303 29.1836C48.219 29.4602 48.2634 29.7656 48.2634 30.1ZM47.5265 30.0938C47.5265 29.8317 47.4935 29.5995 47.4274 29.3972C47.3635 29.1929 47.2737 29.0205 47.1581 28.8801C47.0446 28.7398 46.9104 28.6335 46.7556 28.5612C46.6008 28.4869 46.4346 28.4498 46.2571 28.4498C46.0775 28.4498 45.9114 28.4869 45.7586 28.5612C45.6059 28.6335 45.4727 28.7398 45.3592 28.8801C45.2457 29.0205 45.1569 29.1929 45.093 29.3972C45.029 29.5995 44.997 29.8317 44.997 30.0938C44.997 30.3539 45.029 30.5872 45.093 30.7936C45.1569 31 45.2457 31.1754 45.3592 31.3199C45.4727 31.4623 45.6059 31.5717 45.7586 31.6481C45.9114 31.7224 46.0775 31.7596 46.2571 31.7596C46.4346 31.7596 46.6008 31.7224 46.7556 31.6481C46.9104 31.5717 47.0446 31.4623 47.1581 31.3199C47.2737 31.1754 47.3635 31 47.4274 30.7936C47.4935 30.5872 47.5265 30.3539 47.5265 30.0938Z" fill="white"/>
<path d="M52.6674 29.2176C52.6674 29.4055 52.6178 29.583 52.5187 29.7502C52.4197 29.9153 52.27 30.0587 52.0698 30.1805C52.1668 30.2136 52.2494 30.261 52.3175 30.3229C52.3856 30.3849 52.4413 30.4551 52.4847 30.5335C52.528 30.6099 52.559 30.6924 52.5776 30.7812C52.5982 30.8699 52.6085 30.9577 52.6085 31.0443V31.6636C52.6085 31.7441 52.6281 31.837 52.6674 31.9422C52.7066 32.0475 52.7592 32.1559 52.8253 32.2673H52.0264C51.9955 32.2178 51.9697 32.1662 51.949 32.1125C51.9305 32.0589 51.916 32.0072 51.9057 31.9577C51.8954 31.9061 51.8882 31.8576 51.884 31.8122C51.882 31.7647 51.8809 31.7245 51.8809 31.6914V31.032C51.8809 30.968 51.8696 30.905 51.8469 30.8431C51.8262 30.7791 51.7922 30.7224 51.7447 30.6728C51.6972 30.6212 51.6343 30.5799 51.5558 30.549C51.4774 30.5159 51.3825 30.4994 51.271 30.4994H50.1688V32.2673H49.4381V27.9482H51.271C51.4939 27.9482 51.6921 27.9854 51.8654 28.0597C52.0388 28.134 52.1844 28.231 52.302 28.3507C52.4217 28.4704 52.5125 28.6067 52.5745 28.7594C52.6364 28.9101 52.6674 29.0628 52.6674 29.2176ZM50.1688 29.8833H51.271C51.3597 29.8833 51.4433 29.8678 51.5218 29.8369C51.6023 29.8038 51.6725 29.7595 51.7323 29.7037C51.7942 29.6459 51.8427 29.5768 51.8778 29.4963C51.9129 29.4158 51.9305 29.327 51.9305 29.23C51.9305 29.1351 51.914 29.0473 51.8809 28.9668C51.8479 28.8843 51.8015 28.8141 51.7416 28.7563C51.6838 28.6964 51.6147 28.65 51.5342 28.617C51.4537 28.5819 51.3659 28.5643 51.271 28.5643H50.1688V29.8833Z" fill="white"/>
<path d="M57.9549 27.9482L59.534 32.2673H58.7754L58.3048 31.0041H56.7505C56.6783 31.2126 56.6019 31.4241 56.5214 31.6388C56.443 31.8514 56.3677 32.0609 56.2954 32.2673H55.5338L57.1128 27.9482H57.9549ZM57.5308 28.8554L56.9797 30.3911H58.0757L57.5308 28.8554Z" fill="white"/>
<path d="M61.4053 27.9482V31.6388H63.4828V32.2673H60.6746V27.9482H61.4053Z" fill="white"/>
<path d="M65.3139 27.9482V31.6388H67.3914V32.2673H64.5832V27.9482H65.3139Z" fill="white"/>
</svg>
